PathFileType	4	(X/Y/Z)	D:\TRACE\v60_Jaco2_6-2-23\BothDRS_Motion1_3-platform.trc
DataRate	CameraRate	NumFrames	NumMarkers	Units	OrigDataRate	OrigDataStartFrame	OrigNumFrames
100.00	100.00	      30	5	mm	100.00	5305	      7073
Frame#	Time	Left_Front			Right_Front			Left_Aft			Right_Aft			Post			
		X1	Y1	Z1	X2	Y2	Z2	X3	Y3	Z3	X4	Y4	Z4	X5	Y5	Z5	

5305	53.040	-767.61938	11.36753	-638.72186	802.53851	12.62294	-643.74896	-675.65131	5.69095	496.40482	766.69672	5.39875	506.07513	18.34269	1311.48108	-956.90411	
5306	53.050	-766.57281	11.73210	-638.76227	803.31525	13.10183	-643.63843	-674.81897	5.22029	496.50684	767.27075	5.00329	506.29474	19.35660	1312.27527	-955.89398	
5307	53.060	-765.88300	12.14235	-638.52448	804.02911	13.57514	-643.62781	-673.73920	4.91232	496.54626	768.02374	4.47542	506.36539	19.90936	1312.87598	-954.65729	
5308	53.070	-765.06000	12.68028	-638.21381	805.02325	13.98973	-643.47516	-673.18445	4.58960	496.55521	769.12915	4.31097	506.51645	20.53990	1313.79712	-953.53937	
5309	53.080	-764.37109	13.38779	-638.23370	805.70612	14.68850	-643.32422	-672.43604	4.36359	496.74219	770.19501	4.03676	506.68262	21.80604	1314.40466	-952.69397	
5310	53.090	-763.78900	13.68001	-637.99017	806.51697	15.18393	-643.07294	-671.66785	4.13134	496.84207	770.64032	3.61029	506.77939	22.60948	1315.46179	-951.77252	
5311	53.100	-762.79163	14.10582	-637.95544	807.10590	15.63169	-642.96552	-670.93610	3.77303	496.84650	771.16931	3.02399	506.94934	23.12572	1316.22400	-950.45490	
5312	53.110	-761.97351	14.62899	-637.78577	807.73596	16.20468	-642.91724	-670.23553	2.99889	496.88239	771.90326	2.58618	507.00735	23.79710	1316.76050	-949.32080	
5313	53.120	-761.43237	15.20059	-637.67035	808.71210	16.71242	-642.66028	-669.84259	2.94852	496.89548	772.66095	2.33627	507.09387	24.57652	1317.56311	-948.19452	
5314	53.130	-760.77533	15.98782	-637.57983	809.39142	17.05150	-642.52283	-668.97931	2.65923	496.99765	773.19214	1.95399	507.26416	25.19938	1318.25269	-946.77313	
5315	53.140	-760.15967	16.51195	-637.47388	809.94415	17.78054	-642.71167	-668.16235	2.40614	497.22827	774.29468	1.76314	507.27625	26.21483	1319.05286	-945.76904	
5316	53.150	-759.50549	16.69765	-637.36090	810.55878	18.25754	-642.43036	-667.52191	1.96892	497.38907	774.88861	1.28844	507.34103	26.66437	1319.84924	-944.37952	
5317	53.160	-758.67694	16.98107	-637.33527	811.38062	18.74222	-642.12427	-667.17761	1.62079	497.51773	775.29340	0.93194	507.45615	27.45955	1320.29871	-943.20026	
5318	53.170	-758.08270	17.46972	-637.08173	811.78748	18.99886	-642.16638	-666.54803	1.30112	497.50238	776.05914	0.64037	507.70197	27.97126	1320.94873	-942.41083	
5319	53.180	-757.45453	18.09292	-636.86658	812.56482	19.59673	-642.07526	-665.68201	0.88451	497.65808	776.55884	0.37890	507.83829	28.46747	1321.63501	-941.43982	
5320	53.190	-756.99005	18.68472	-636.90106	813.29095	20.04702	-641.78729	-665.13519	0.57348	497.81342	777.50653	0.12404	507.94754	29.07715	1322.41321	-940.38770	
5321	53.200	-756.50189	19.35258	-636.68140	813.85938	20.46337	-641.67725	-664.64282	0.34323	497.92508	777.85022	-0.31848	508.06967	29.57959	1323.11719	-940.07410	
5322	53.210	-756.14404	19.88253	-636.57880	814.28235	20.98383	-641.83362	-664.15247	0.05249	498.04236	777.96332	-0.70545	508.20630	30.43610	1323.75574	-938.90546	
5323	53.220	-755.50024	20.21068	-636.55621	814.70740	21.48419	-641.70966	-663.69110	-0.21018	498.02151	778.69611	-1.15143	508.11423	31.05357	1324.46631	-938.12524	
5324	53.230	-754.70337	20.64099	-636.49982	815.28674	22.05011	-641.39758	-663.18835	-0.65865	498.03366	779.45294	-1.44731	508.23486	31.56688	1325.22620	-936.75305	
5325	53.240	-754.23572	21.02385	-636.19965	815.21326	22.18833	-641.58801	-662.65125	-1.07282	498.09869	780.10547	-1.68345	508.27594	31.88576	1325.90210	-936.02826	
5326	53.250	-753.70428	21.58235	-636.03882	816.19128	22.86377	-641.08026	-662.20496	-1.26543	498.11041	780.48199	-1.99682	508.34448	32.03923	1326.49316	-934.59662	
5327	53.260	-753.30908	22.05730	-636.04626	816.64221	23.38744	-641.03046	-661.89252	-1.49965	498.19098	780.70380	-2.43342	508.40784	32.56563	1327.37195	-933.40454	
5328	53.270	-753.00885	22.29273	-635.83820	816.63763	23.57785	-641.29742	-661.53259	-1.80540	498.20706	780.99603	-2.87169	508.49475	32.85920	1327.96252	-931.69336	
5329	53.280	-752.57404	22.63384	-635.76556	816.85577	24.07371	-641.21191	-660.64575	-2.68400	499.22366	781.23169	-3.28328	508.61252	33.35923	1328.41589	-930.44159	
5330	53.290	-752.31647	23.39396	-635.47876	817.36902	24.80395	-641.04504	-660.32355	-2.91109	499.27524	781.75385	-3.33422	508.81677	33.50194	1329.21191	-929.60803	
5331	53.300	-752.02509	24.09042	-635.68530	817.88446	25.18608	-640.81000	-659.98615	-3.16571	499.31171	782.28204	-3.63178	508.91669	34.09325	1329.58240	-928.39551	
5332	53.310	-751.76294	24.30373	-635.56519	818.32538	25.42606	-640.70703	-659.64655	-3.31966	499.30978	782.52850	-4.03385	508.95108	34.29218	1330.10339	-927.97015	
5333	53.320	-751.57379	24.44359	-635.38751	818.52240	25.97437	-640.60016	-659.45105	-3.52482	499.45383	782.55841	-4.36282	508.46860	34.74360	1330.76294	-927.74280	
5334	53.330	-751.37024	24.67113	-635.26154	818.78961	26.38686	-640.59015	-659.35968	-3.87373	499.57596	782.91516	-4.58843	509.34253	35.18556	1331.43921	-927.04382	
